<svg width="64" height="103" viewBox="0 0 64 103" fill="none" xmlns="http://www.w3.org/2000/svg">
<path d="M28.4423 68.5921C29.2534 70.1636 29.7627 71.8874 30.2154 73.6134C31.5762 78.7981 32.4839 84.1059 33.2566 89.4206C33.821 93.3001 34.6134 98.7311 34.3726 102.589C34.9667 93.0789 36.5329 83.6364 39.0365 74.4734C41.214 66.5058 45.5372 59.9332 53.2579 56.9089C56.726 55.5522 60.4531 55.1023 64 53.9876C58.2892 52.8278 51.0637 51.4849 46.2126 47.9768C41.6082 44.648 38.5999 38.6637 36.8898 33.2328C34.9223 26.9848 34.3181 20.367 33.727 13.8171C33.3106 9.20963 32.8957 4.60481 32.4803 0C33.084 6.69579 31.7933 14.354 30.8459 20.9718C30.0867 26.2775 29.2827 31.8496 27.2753 36.8417C26.9058 37.7575 26.497 38.6552 26.0402 39.528C20.9073 49.3202 10.6699 56.0648 0 56.3269C9.52162 56.763 23.3342 58.6837 28.4423 68.5921Z" fill="#DCE3D4"/>
</svg>
